                       Extremities 1986 
                      +++++++++++++++++ 
Extremities is a 1986 film starring Farrah Fawcett (February 2, 1947 – June 25, 2009), Alfre Woodard, Diana Scarwid and James Russo. It was adapted from the successful, yet controversial, 1982 off-Broadway play by William Mastrosimone. Farrah Fawcett had also appeared in the play to great critical acclaim[citation needed], taking over a role originated by Susan Sarandon. James Russo also appeared in the play as the attacker.

Plot
----
Marjorie (Farrah Fawcett) is a young woman who works in a museum and lives with two female roommates, Pat (Woodard) and Terry (Scarwid). One night, while getting into her car, she is attacked at knifepoint by a masked assailant (Russo).

Marjorie manages to escape, but not before the mugger makes off with her purse. She goes to the police but is told there is very little they can do. One week later, while Marjorie's roommates are at work, her nightmare comes true as the assailant (named Joe) casually enters her house, having used her personal information to find out where she lives.

A terrifying scene of events unfolds as Joe subjects Marjorie to a continuous barrage of mental and physical assaults. The tables finally turn, however, when Marjorie overpowers Joe by spraying his eyes and mouth with insect repellent as he's getting ready to rape her.

Marjorie then ties Joe up and subjects him to the same kind of physical and mental assaults he used on her earlier, even reducing him to tears as he pleads for his life when he learns that he's ingested some of the insect repellent Marjorie sprayed at him. When Terry and Pat return home, they try to convince Marjorie, who is contemplating murdering him, to think about the consequences of her actions, since Joe didn't actually rape or attempt to kill her. Joe points this out when he compares his beaten and bloodied self to Marjorie's own physical state. He attempts to fabricate a story that he knew Marjorie through a one-night stand at a party some time ago, which her roommates almost believe, until Marjorie calls him a liar and attacks him, finding the sheath knife he used on her in the first attack, proving her story to Patty and Terry.

Marjorie forces Joe to admit his guilt by torturing him with the blade, and at one point threatens to castrate him if he does not tell the truth. Defeated, a sobbing Joe confesses by saying he watched the house and stole letters to gain insight into how the women lived...and that he intended to kill Marjorie and her roommates that day. He also confesses to the rapes and presumed murders of three other women. Finally at peace, Marjorie allows Patty and Terry to call the police.

Cast
----
    Farrah Fawcett as Marjorie
    James Russo as Joe
    Alfre Woodard as Pat
    Diana Scarwid as Terry

Award Nomination
----------------
For her performance, Fawcett received a 1986 Golden Globe nomination for "Best Actress in a Drama".

***********************************************************************************
Comment by Hyperdrive25: Rest in peace Farrah, you were and still are an inspiration to all of us, all over the world. You still have many fans that miss you. Your courage will be forever remembered. This upload is a tribute to you, and all the mothers in the world that battle cancer. All you scientists out there, please find a cure to this dreaded disease that takes away our loved ones.
***********************************************************************************

A/V INFO
========

General
-------
Format                           : AVI
Format/Info                      : Audio Video Interleave
File size                        : 488 MiB
Duration                         : 1h 29mn
Overall bit rate                 : 764 Kbps
Writing application              : MEncoder 2:1.0~rc2-0ubuntu19+medibuntu1
Writing library                  : MPlayer

Video
-----
Format                           : MPEG-4 Visual
Format profile                   : Advanced Simple@L5
Format settings, BVOP            : 2
Format settings, QPel            : No
Format settings, GMC             : No warppoints
Format settings, Matrix          : Default (H.263)
Codec ID                         : XVID
Codec ID/Hint                    : XviD
Duration                         : 1h 29mn
Bit rate                         : 667 Kbps
Width                            : 608 pixels
Height                           : 336 pixels
Display aspect ratio             : 16:9
Frame rate                       : 25.000 fps
Color space                      : YUV
Chroma subsampling               : 4:2:0
Bit depth                        : 8 bits
Scan type                        : Progressive
Compression mode                 : Lossy
Bits/(Pixel*Frame)               : 0.131
Stream size                      : 427 MiB (87%)
Writing library                  : XviD 1.2.1 (UTC 2008-12-04)

Audio
-----
Format                           : MPEG Audio
Format version                   : Version 1
Format profile                   : Layer 3
Mode                             : Joint stereo
Mode extension                   : MS Stereo
Codec ID                         : 55
Codec ID/Hint                    : MP3
Duration                         : 1h 29mn
Bit rate mode                    : Variable
Bit rate                         : 83.8 Kbps
Channel(s)                       : 2 channels
Sampling rate                    : 44.1 KHz
Compression mode                 : Lossy
Stream size                      : 53.6 MiB (11%)
Alignment                        : Aligned on interleaves
Interleave, duration             : 26 ms (0.65 video frame)
Interleave, preload duration     : 198 ms
Writing library                  : LAME3.98


___________________________________________________________________________________

Playback Guide For DVD/CD Player: This file can be played with any DIVX/MP4 compatible DVD/VCD Player. Just burn the avi file onto a CD using Nero or 
Ashampoo Burning Studio by making a DATA CD.

Playback guide for PC: To play this video make sure you have VLC media player 
(VideoLAN) or SMplayer installed on your PC.

Download VLC Media Player: http://www.videolan.org/
Download SMPlayer: http://smplayer.sf.net/



Another Quality Torrent Courtesy of Hyperdrive25. All My torrents are here:
   
http://thepiratebay.org/user/Hyperdrive25


___________________________________________________________________________________

==========================+= HYPERDRIVE25 TORRENT =+==============================
___________________________________________________________________________________


              THE SOLE PURPOSE OF LIFE IS TO KEEP FREE OF BOREDOM!


                              ENJOY THE MOVIE!!! :)		




